<?xml version="1.0" encoding="UTF-8" standalone="no"?>
<!DOCTYPE svg PUBLIC "-//W3C//DTD SVG 1.1//EN"
 "http://www.w3.org/Graphics/SVG/1.1/DTD/svg11.dtd">
<!-- Generated by graphviz version 2.43.0 (0)
 -->
<!-- Title: g Pages: 1 -->
<svg width="1751pt" height="153pt"
 viewBox="0.00 0.00 1750.50 153.00" xmlns="http://www.w3.org/2000/svg" xmlns:xlink="http://www.w3.org/1999/xlink">
<g id="graph0" class="graph" transform="scale(1 1) rotate(0) translate(4 149)">
<title>g</title>
<polygon fill="white" stroke="transparent" points="-4,4 -4,-149 1746.5,-149 1746.5,4 -4,4"/>
<text text-anchor="middle" x="871.25" y="-129.8" font-family="Helvetica,sans-Serif" font-weight="bold" font-size="14.00"> — first&#45;flights&#45;pattern&#45;language (rendered from EDN alone)</text>
<!-- n1168155148 -->
<g id="node1" class="node">
<title>n1168155148</title>
<polygon fill="#f0f0f0" stroke="#c0392b" stroke-width="2" stroke-dasharray="5,2" points="745.5,-41 574.5,-41 574.5,0 745.5,0 745.5,-41"/>
<text text-anchor="middle" x="660" y="-29" font-family="Helvetica,sans-Serif" font-size="10.00">flight records: data without shape…</text>
<text text-anchor="middle" x="660" y="-18" font-family="Helvetica,sans-Serif" font-size="10.00">scope</text>
<text text-anchor="middle" x="660" y="-7" font-family="Helvetica,sans-Serif" font-size="10.00">HUNGRY: payoff</text>
</g>
<!-- n1227929094 -->
<g id="node2" class="node">
<title>n1227929094</title>
<path fill="#d3f3df" stroke="black" d="M158,-38.5C158,-38.5 12,-38.5 12,-38.5 6,-38.5 0,-32.5 0,-26.5 0,-26.5 0,-14.5 0,-14.5 0,-8.5 6,-2.5 12,-2.5 12,-2.5 158,-2.5 158,-2.5 164,-2.5 170,-8.5 170,-14.5 170,-14.5 170,-26.5 170,-26.5 170,-32.5 164,-38.5 158,-38.5"/>
<text text-anchor="middle" x="85" y="-23.5" font-family="Helvetica,sans-Serif" font-size="10.00">peripherals/pilot&#45;plus&#45;ground&#45;cont…</text>
<text text-anchor="middle" x="85" y="-12.5" font-family="Helvetica,sans-Serif" font-size="10.00">concept</text>
</g>
<!-- n1673640594 -->
<g id="node3" class="node">
<title>n1673640594</title>
<path fill="#d3f3df" stroke="black" d="M346,-38.5C346,-38.5 200,-38.5 200,-38.5 194,-38.5 188,-32.5 188,-26.5 188,-26.5 188,-14.5 188,-14.5 188,-8.5 194,-2.5 200,-2.5 200,-2.5 346,-2.5 346,-2.5 352,-2.5 358,-8.5 358,-14.5 358,-14.5 358,-26.5 358,-26.5 358,-32.5 352,-38.5 346,-38.5"/>
<text text-anchor="middle" x="273" y="-23.5" font-family="Helvetica,sans-Serif" font-size="10.00">futon&#45;theory/crime&#45;relocates&#45;to&#45;a&#45;…</text>
<text text-anchor="middle" x="273" y="-12.5" font-family="Helvetica,sans-Serif" font-size="10.00">concept</text>
</g>
<!-- n326803397 -->
<g id="node4" class="node">
<title>n326803397</title>
<polygon fill="#d3f3df" stroke="#c0392b" stroke-width="2" stroke-dasharray="5,2" points="914.5,-41 763.5,-41 763.5,0 914.5,0 914.5,-41"/>
<text text-anchor="middle" x="839" y="-29" font-family="Helvetica,sans-Serif" font-size="10.00">realtime/structured&#45;events&#45;only</text>
<text text-anchor="middle" x="839" y="-18" font-family="Helvetica,sans-Serif" font-size="10.00">concept</text>
<text text-anchor="middle" x="839" y="-7" font-family="Helvetica,sans-Serif" font-size="10.00">HUNGRY: payoff</text>
</g>
<!-- n102613800 -->
<g id="node5" class="node">
<title>n102613800</title>
<path fill="#d3f3df" stroke="black" d="M1093,-38.5C1093,-38.5 945,-38.5 945,-38.5 939,-38.5 933,-32.5 933,-26.5 933,-26.5 933,-14.5 933,-14.5 933,-8.5 939,-2.5 945,-2.5 945,-2.5 1093,-2.5 1093,-2.5 1099,-2.5 1105,-8.5 1105,-14.5 1105,-14.5 1105,-26.5 1105,-26.5 1105,-32.5 1099,-38.5 1093,-38.5"/>
<text text-anchor="middle" x="1019" y="-23.5" font-family="Helvetica,sans-Serif" font-size="10.00">structure/two&#45;projections&#45;of&#45;one&#45;q…</text>
<text text-anchor="middle" x="1019" y="-12.5" font-family="Helvetica,sans-Serif" font-size="10.00">concept</text>
</g>
<!-- n901649820 -->
<g id="node6" class="node">
<title>n901649820</title>
<path fill="#d3f3df" stroke="black" d="M1404.5,-38.5C1404.5,-38.5 1315.5,-38.5 1315.5,-38.5 1309.5,-38.5 1303.5,-32.5 1303.5,-26.5 1303.5,-26.5 1303.5,-14.5 1303.5,-14.5 1303.5,-8.5 1309.5,-2.5 1315.5,-2.5 1315.5,-2.5 1404.5,-2.5 1404.5,-2.5 1410.5,-2.5 1416.5,-8.5 1416.5,-14.5 1416.5,-14.5 1416.5,-26.5 1416.5,-26.5 1416.5,-32.5 1410.5,-38.5 1404.5,-38.5"/>
<text text-anchor="middle" x="1360" y="-23.5" font-family="Helvetica,sans-Serif" font-size="10.00">aif/no&#45;self&#45;certification</text>
<text text-anchor="middle" x="1360" y="-12.5" font-family="Helvetica,sans-Serif" font-size="10.00">concept</text>
</g>
<!-- n1696363746 -->
<g id="node7" class="node">
<title>n1696363746</title>
<path fill="#d3f3df" stroke="black" d="M1273,-38.5C1273,-38.5 1135,-38.5 1135,-38.5 1129,-38.5 1123,-32.5 1123,-26.5 1123,-26.5 1123,-14.5 1123,-14.5 1123,-8.5 1129,-2.5 1135,-2.5 1135,-2.5 1273,-2.5 1273,-2.5 1279,-2.5 1285,-8.5 1285,-14.5 1285,-14.5 1285,-26.5 1285,-26.5 1285,-32.5 1279,-38.5 1273,-38.5"/>
<text text-anchor="middle" x="1204" y="-23.5" font-family="Helvetica,sans-Serif" font-size="10.00">aif/measurement&#45;window&#45;hygiene</text>
<text text-anchor="middle" x="1204" y="-12.5" font-family="Helvetica,sans-Serif" font-size="10.00">concept</text>
</g>
<!-- n2114395024 -->
<g id="node8" class="node">
<title>n2114395024</title>
<path fill="#d3f3df" stroke="black" d="M1539.5,-38.5C1539.5,-38.5 1446.5,-38.5 1446.5,-38.5 1440.5,-38.5 1434.5,-32.5 1434.5,-26.5 1434.5,-26.5 1434.5,-14.5 1434.5,-14.5 1434.5,-8.5 1440.5,-2.5 1446.5,-2.5 1446.5,-2.5 1539.5,-2.5 1539.5,-2.5 1545.5,-2.5 1551.5,-8.5 1551.5,-14.5 1551.5,-14.5 1551.5,-26.5 1551.5,-26.5 1551.5,-32.5 1545.5,-38.5 1539.5,-38.5"/>
<text text-anchor="middle" x="1493" y="-23.5" font-family="Helvetica,sans-Serif" font-size="10.00">aif/two&#45;layer&#45;calibration</text>
<text text-anchor="middle" x="1493" y="-12.5" font-family="Helvetica,sans-Serif" font-size="10.00">concept</text>
</g>
<!-- n1398759811 -->
<g id="node9" class="node">
<title>n1398759811</title>
<path fill="#d3f3df" stroke="black" d="M544,-38.5C544,-38.5 388,-38.5 388,-38.5 382,-38.5 376,-32.5 376,-26.5 376,-26.5 376,-14.5 376,-14.5 376,-8.5 382,-2.5 388,-2.5 388,-2.5 544,-2.5 544,-2.5 550,-2.5 556,-8.5 556,-14.5 556,-14.5 556,-26.5 556,-26.5 556,-32.5 550,-38.5 544,-38.5"/>
<text text-anchor="middle" x="466" y="-23.5" font-family="Helvetica,sans-Serif" font-size="10.00">collaboration&#45;coherence/determined…</text>
<text text-anchor="middle" x="466" y="-12.5" font-family="Helvetica,sans-Serif" font-size="10.00">concept</text>
</g>
<!-- n1954116109 -->
<g id="node10" class="node">
<title>n1954116109</title>
<path fill="#d3f3df" stroke="black" d="M1730.5,-38.5C1730.5,-38.5 1581.5,-38.5 1581.5,-38.5 1575.5,-38.5 1569.5,-32.5 1569.5,-26.5 1569.5,-26.5 1569.5,-14.5 1569.5,-14.5 1569.5,-8.5 1575.5,-2.5 1581.5,-2.5 1581.5,-2.5 1730.5,-2.5 1730.5,-2.5 1736.5,-2.5 1742.5,-8.5 1742.5,-14.5 1742.5,-14.5 1742.5,-26.5 1742.5,-26.5 1742.5,-32.5 1736.5,-38.5 1730.5,-38.5"/>
<text text-anchor="middle" x="1656" y="-23.5" font-family="Helvetica,sans-Serif" font-size="10.00">futon&#45;theory/honest&#45;map&#45;over&#45;flatt…</text>
<text text-anchor="middle" x="1656" y="-12.5" font-family="Helvetica,sans-Serif" font-size="10.00">concept</text>
</g>
<!-- e0 -->
<g id="node11" class="node">
<title>e0</title>
<ellipse fill="#ffffff" stroke="#999999" cx="483" cy="-104" rx="35.34" ry="18"/>
<text text-anchor="middle" x="483" y="-102.1" font-family="Helvetica,sans-Serif" font-size="8.00">differentiates</text>
</g>
<!-- e0&#45;&gt;n1168155148 -->
<g id="edge1" class="edge">
<title>e0&#45;&gt;n1168155148</title>
<path fill="none" stroke="#666666" d="M508.36,-91.32C534.29,-79.39 575.3,-60.5 608.14,-45.38"/>
<polygon fill="#666666" stroke="#666666" points="609.98,-48.38 617.6,-41.02 607.05,-42.03 609.98,-48.38"/>
<text text-anchor="middle" x="589" y="-61.6" font-family="Helvetica,sans-Serif" font-size="8.00">context</text>
</g>
<!-- e0&#45;&gt;n1227929094 -->
<g id="edge2" class="edge">
<title>e0&#45;&gt;n1227929094</title>
<path fill="none" stroke="#666666" d="M450.6,-96.43C395.02,-85.15 277.92,-61.35 179,-41 178.39,-40.87 177.77,-40.75 177.16,-40.62"/>
<polygon fill="#666666" stroke="#666666" points="177.52,-37.12 167.02,-38.53 176.11,-43.98 177.52,-37.12"/>
<text text-anchor="middle" x="317" y="-61.6" font-family="Helvetica,sans-Serif" font-size="8.00">pattern</text>
</g>
<!-- e1 -->
<g id="node12" class="node">
<title>e1</title>
<ellipse fill="#ffffff" stroke="#999999" cx="180" cy="-104" rx="35.34" ry="18"/>
<text text-anchor="middle" x="180" y="-102.1" font-family="Helvetica,sans-Serif" font-size="8.00">differentiates</text>
</g>
<!-- e1&#45;&gt;n1227929094 -->
<g id="edge3" class="edge">
<title>e1&#45;&gt;n1227929094</title>
<path fill="none" stroke="#666666" d="M162.58,-88.05C148.71,-76.16 129.03,-59.28 112.97,-45.49"/>
<polygon fill="#666666" stroke="#666666" points="114.81,-42.46 104.94,-38.61 110.25,-47.78 114.81,-42.46"/>
<text text-anchor="middle" x="152" y="-61.6" font-family="Helvetica,sans-Serif" font-size="8.00">context</text>
</g>
<!-- e1&#45;&gt;n1673640594 -->
<g id="edge4" class="edge">
<title>e1&#45;&gt;n1673640594</title>
<path fill="none" stroke="#666666" d="M197.63,-88.1C204.9,-81.92 213.39,-74.65 221,-68 229.21,-60.83 238.07,-52.95 246.12,-45.75"/>
<polygon fill="#666666" stroke="#666666" points="248.73,-48.11 253.83,-38.83 244.05,-42.9 248.73,-48.11"/>
<text text-anchor="middle" x="244" y="-61.6" font-family="Helvetica,sans-Serif" font-size="8.00">pattern</text>
</g>
<!-- e2 -->
<g id="node13" class="node">
<title>e2</title>
<ellipse fill="#ffffff" stroke="#999999" cx="635" cy="-104" rx="35.34" ry="18"/>
<text text-anchor="middle" x="635" y="-102.1" font-family="Helvetica,sans-Serif" font-size="8.00">differentiates</text>
</g>
<!-- e2&#45;&gt;n1673640594 -->
<g id="edge5" class="edge">
<title>e2&#45;&gt;n1673640594</title>
<path fill="none" stroke="#666666" d="M603.42,-95.8C565.03,-87.06 498.28,-71.89 441,-59 414.5,-53.04 385.64,-46.58 359.44,-40.73"/>
<polygon fill="#666666" stroke="#666666" points="360.06,-37.29 349.54,-38.53 358.53,-44.12 360.06,-37.29"/>
<text text-anchor="middle" x="491" y="-61.6" font-family="Helvetica,sans-Serif" font-size="8.00">context</text>
</g>
<!-- e2&#45;&gt;n326803397 -->
<g id="edge6" class="edge">
<title>e2&#45;&gt;n326803397</title>
<path fill="none" stroke="#666666" d="M662.22,-92.55C680.1,-85.65 703.97,-76.38 725,-68 743.69,-60.56 764.04,-52.3 782.3,-44.84"/>
<polygon fill="#666666" stroke="#666666" points="783.72,-48.04 791.65,-41.02 781.07,-41.56 783.72,-48.04"/>
<text text-anchor="middle" x="759" y="-61.6" font-family="Helvetica,sans-Serif" font-size="8.00">pattern</text>
</g>
<!-- e3 -->
<g id="node14" class="node">
<title>e3</title>
<ellipse fill="#ffffff" stroke="#999999" cx="944" cy="-104" rx="35.34" ry="18"/>
<text text-anchor="middle" x="944" y="-102.1" font-family="Helvetica,sans-Serif" font-size="8.00">differentiates</text>
</g>
<!-- e3&#45;&gt;n326803397 -->
<g id="edge7" class="edge">
<title>e3&#45;&gt;n326803397</title>
<path fill="none" stroke="#666666" d="M914.17,-94.2C898.79,-88.56 880.49,-80.01 867,-68 861.29,-62.91 856.39,-56.38 852.36,-49.83"/>
<polygon fill="#666666" stroke="#666666" points="855.35,-48.02 847.4,-41.02 849.25,-51.45 855.35,-48.02"/>
<text text-anchor="middle" x="880" y="-61.6" font-family="Helvetica,sans-Serif" font-size="8.00">context</text>
</g>
<!-- e3&#45;&gt;n102613800 -->
<g id="edge8" class="edge">
<title>e3&#45;&gt;n102613800</title>
<path fill="none" stroke="#666666" d="M952.46,-86.16C957.24,-77.53 963.72,-67.16 971,-59 975.35,-54.13 980.38,-49.44 985.53,-45.11"/>
<polygon fill="#666666" stroke="#666666" points="987.99,-47.62 993.62,-38.64 983.62,-42.15 987.99,-47.62"/>
<text text-anchor="middle" x="984" y="-61.6" font-family="Helvetica,sans-Serif" font-size="8.00">pattern</text>
</g>
<!-- e4 -->
<g id="node15" class="node">
<title>e4</title>
<ellipse fill="#ffffff" stroke="#999999" cx="1234" cy="-104" rx="35.34" ry="18"/>
<text text-anchor="middle" x="1234" y="-102.1" font-family="Helvetica,sans-Serif" font-size="8.00">differentiates</text>
</g>
<!-- e4&#45;&gt;n326803397 -->
<g id="edge9" class="edge">
<title>e4&#45;&gt;n326803397</title>
<path fill="none" stroke="#666666" d="M1206.25,-92.79C1187.72,-85.92 1162.84,-76.57 1141,-68 1131.17,-64.14 1129.26,-61.51 1119,-59 1037.52,-39.04 1011.79,-53.62 924.93,-40.98"/>
<polygon fill="#666666" stroke="#666666" points="925.32,-37.5 914.9,-39.44 924.25,-44.42 925.32,-37.5"/>
<text text-anchor="middle" x="1154" y="-61.6" font-family="Helvetica,sans-Serif" font-size="8.00">context</text>
</g>
<!-- e4&#45;&gt;n901649820 -->
<g id="edge10" class="edge">
<title>e4&#45;&gt;n901649820</title>
<path fill="none" stroke="#666666" d="M1255.09,-89.36C1274.14,-77.04 1302.54,-58.66 1324.99,-44.14"/>
<polygon fill="#666666" stroke="#666666" points="1327.09,-46.96 1333.58,-38.59 1323.29,-41.08 1327.09,-46.96"/>
<text text-anchor="middle" x="1313" y="-61.6" font-family="Helvetica,sans-Serif" font-size="8.00">pattern</text>
</g>
<!-- e5 -->
<g id="node16" class="node">
<title>e5</title>
<ellipse fill="#ffffff" stroke="#999999" cx="1325" cy="-104" rx="35.34" ry="18"/>
<text text-anchor="middle" x="1325" y="-102.1" font-family="Helvetica,sans-Serif" font-size="8.00">differentiates</text>
</g>
<!-- e5&#45;&gt;n901649820 -->
<g id="edge11" class="edge">
<title>e5&#45;&gt;n901649820</title>
<path fill="none" stroke="#666666" d="M1332.25,-86.11C1336.96,-75.15 1343.2,-60.63 1348.56,-48.13"/>
<polygon fill="#666666" stroke="#666666" points="1351.91,-49.22 1352.64,-38.65 1345.47,-46.45 1351.91,-49.22"/>
<text text-anchor="middle" x="1356" y="-61.6" font-family="Helvetica,sans-Serif" font-size="8.00">context</text>
</g>
<!-- e5&#45;&gt;n1696363746 -->
<g id="edge12" class="edge">
<title>e5&#45;&gt;n1696363746</title>
<path fill="none" stroke="#666666" d="M1296.46,-93.39C1281.02,-87.43 1262.07,-78.83 1247,-68 1238.61,-61.97 1230.58,-54.1 1223.78,-46.55"/>
<polygon fill="#666666" stroke="#666666" points="1226.11,-43.88 1216.93,-38.59 1220.8,-48.45 1226.11,-43.88"/>
<text text-anchor="middle" x="1260" y="-61.6" font-family="Helvetica,sans-Serif" font-size="8.00">pattern</text>
</g>
<!-- e6 -->
<g id="node17" class="node">
<title>e6</title>
<ellipse fill="#ffffff" stroke="#999999" cx="1146" cy="-104" rx="30.13" ry="18"/>
<text text-anchor="middle" x="1146" y="-102.1" font-family="Helvetica,sans-Serif" font-size="8.00">jointly&#45;with</text>
</g>
<!-- e6&#45;&gt;n102613800 -->
<g id="edge13" class="edge">
<title>e6&#45;&gt;n102613800</title>
<path fill="none" stroke="#666666" d="M1120.9,-94.04C1113.25,-91.37 1104.8,-88.5 1097,-86 1070.08,-77.37 1056.61,-87.34 1036,-68 1030.4,-62.74 1026.64,-55.49 1024.11,-48.27"/>
<polygon fill="#666666" stroke="#666666" points="1027.48,-47.31 1021.38,-38.65 1020.74,-49.22 1027.48,-47.31"/>
<text text-anchor="middle" x="1049" y="-61.6" font-family="Helvetica,sans-Serif" font-size="8.00">context</text>
</g>
<!-- e6&#45;&gt;n1696363746 -->
<g id="edge14" class="edge">
<title>e6&#45;&gt;n1696363746</title>
<path fill="none" stroke="#666666" d="M1157.46,-86.98C1161.72,-81.02 1166.58,-74.2 1171,-68 1175.84,-61.2 1181.08,-53.83 1185.92,-47"/>
<polygon fill="#666666" stroke="#666666" points="1188.86,-48.91 1191.79,-38.73 1183.15,-44.86 1188.86,-48.91"/>
<text text-anchor="middle" x="1190" y="-61.6" font-family="Helvetica,sans-Serif" font-size="8.00">pattern</text>
</g>
<!-- e7 -->
<g id="node18" class="node">
<title>e7</title>
<ellipse fill="#ffffff" stroke="#999999" cx="1414" cy="-104" rx="35.34" ry="18"/>
<text text-anchor="middle" x="1414" y="-102.1" font-family="Helvetica,sans-Serif" font-size="8.00">differentiates</text>
</g>
<!-- e7&#45;&gt;n901649820 -->
<g id="edge15" class="edge">
<title>e7&#45;&gt;n901649820</title>
<path fill="none" stroke="#666666" d="M1403.07,-86.51C1395.56,-75.17 1385.44,-59.89 1376.89,-47"/>
<polygon fill="#666666" stroke="#666666" points="1379.72,-44.93 1371.28,-38.53 1373.89,-48.8 1379.72,-44.93"/>
<text text-anchor="middle" x="1403" y="-61.6" font-family="Helvetica,sans-Serif" font-size="8.00">context</text>
</g>
<!-- e7&#45;&gt;n2114395024 -->
<g id="edge16" class="edge">
<title>e7&#45;&gt;n2114395024</title>
<path fill="none" stroke="#666666" d="M1439.57,-91.43C1450.32,-85.59 1462.32,-77.68 1471,-68 1476.16,-62.24 1480.35,-55.05 1483.64,-48.07"/>
<polygon fill="#666666" stroke="#666666" points="1486.88,-49.39 1487.55,-38.81 1480.43,-46.66 1486.88,-49.39"/>
<text text-anchor="middle" x="1490" y="-61.6" font-family="Helvetica,sans-Serif" font-size="8.00">pattern</text>
</g>
<!-- e8 -->
<g id="node19" class="node">
<title>e8</title>
<ellipse fill="#ffffff" stroke="#999999" cx="349" cy="-104" rx="35.34" ry="18"/>
<text text-anchor="middle" x="349" y="-102.1" font-family="Helvetica,sans-Serif" font-size="8.00">differentiates</text>
</g>
<!-- e8&#45;&gt;n1227929094 -->
<g id="edge17" class="edge">
<title>e8&#45;&gt;n1227929094</title>
<path fill="none" stroke="#666666" d="M315.82,-97.6C283.49,-91.88 233.2,-81.78 191,-68 184.79,-65.97 157.54,-54.01 132.23,-42.72"/>
<polygon fill="#666666" stroke="#666666" points="133.59,-39.5 123.03,-38.62 130.74,-45.89 133.59,-39.5"/>
<text text-anchor="middle" x="204" y="-61.6" font-family="Helvetica,sans-Serif" font-size="8.00">context</text>
</g>
<!-- e8&#45;&gt;n1398759811 -->
<g id="edge18" class="edge">
<title>e8&#45;&gt;n1398759811</title>
<path fill="none" stroke="#666666" d="M369.11,-88.99C386.61,-76.8 412.3,-58.91 432.83,-44.6"/>
<polygon fill="#666666" stroke="#666666" points="435.07,-47.31 441.28,-38.72 431.07,-41.56 435.07,-47.31"/>
<text text-anchor="middle" x="424" y="-61.6" font-family="Helvetica,sans-Serif" font-size="8.00">pattern</text>
</g>
<!-- e9 -->
<g id="node20" class="node">
<title>e9</title>
<ellipse fill="#ffffff" stroke="#999999" cx="750" cy="-104" rx="30.13" ry="18"/>
<text text-anchor="middle" x="750" y="-102.1" font-family="Helvetica,sans-Serif" font-size="8.00">jointly&#45;with</text>
</g>
<!-- e9&#45;&gt;n326803397 -->
<g id="edge19" class="edge">
<title>e9&#45;&gt;n326803397</title>
<path fill="none" stroke="#666666" d="M765.91,-88.43C778.17,-77.2 795.46,-61.37 810.14,-47.93"/>
<polygon fill="#666666" stroke="#666666" points="812.53,-50.49 817.54,-41.15 807.8,-45.32 812.53,-50.49"/>
<text text-anchor="middle" x="810" y="-61.6" font-family="Helvetica,sans-Serif" font-size="8.00">context</text>
</g>
<!-- e9&#45;&gt;n1398759811 -->
<g id="edge20" class="edge">
<title>e9&#45;&gt;n1398759811</title>
<path fill="none" stroke="#666666" d="M724.07,-94.78C695.3,-85.73 647.46,-70.88 606,-59 585.12,-53.02 562.4,-46.8 541.46,-41.2"/>
<polygon fill="#666666" stroke="#666666" points="542.22,-37.78 531.66,-38.58 540.42,-44.54 542.22,-37.78"/>
<text text-anchor="middle" x="646" y="-61.6" font-family="Helvetica,sans-Serif" font-size="8.00">pattern</text>
</g>
<!-- e10 -->
<g id="node21" class="node">
<title>e10</title>
<ellipse fill="#ffffff" stroke="#999999" cx="1605" cy="-104" rx="35.34" ry="18"/>
<text text-anchor="middle" x="1605" y="-102.1" font-family="Helvetica,sans-Serif" font-size="8.00">differentiates</text>
</g>
<!-- e10&#45;&gt;n901649820 -->
<g id="edge21" class="edge">
<title>e10&#45;&gt;n901649820</title>
<path fill="none" stroke="#666666" d="M1571.14,-98.91C1537.36,-94.11 1484.37,-84.61 1441,-68 1424.85,-61.82 1408.1,-52.72 1394.05,-44.2"/>
<polygon fill="#666666" stroke="#666666" points="1395.59,-41.03 1385.24,-38.73 1391.89,-46.98 1395.59,-41.03"/>
<text text-anchor="middle" x="1454" y="-61.6" font-family="Helvetica,sans-Serif" font-size="8.00">context</text>
</g>
<!-- e10&#45;&gt;n1954116109 -->
<g id="edge22" class="edge">
<title>e10&#45;&gt;n1954116109</title>
<path fill="none" stroke="#666666" d="M1615.32,-86.51C1622.35,-75.28 1631.79,-60.19 1639.81,-47.37"/>
<polygon fill="#666666" stroke="#666666" points="1643.01,-48.86 1645.34,-38.53 1637.07,-45.15 1643.01,-48.86"/>
<text text-anchor="middle" x="1645" y="-61.6" font-family="Helvetica,sans-Serif" font-size="8.00">pattern</text>
</g>
<!-- e11 -->
<g id="node22" class="node">
<title>e11</title>
<ellipse fill="#ffffff" stroke="#999999" cx="1053" cy="-104" rx="35.34" ry="18"/>
<text text-anchor="middle" x="1053" y="-102.1" font-family="Helvetica,sans-Serif" font-size="8.00">differentiates</text>
</g>
<!-- e11&#45;&gt;n1168155148 -->
<g id="edge24" class="edge">
<title>e11&#45;&gt;n1168155148</title>
<path fill="none" stroke="#666666" d="M1024.1,-93.75C992.27,-83.87 939.46,-68.37 893,-59 835.33,-47.37 817.71,-50.83 755.58,-41"/>
<polygon fill="#666666" stroke="#666666" points="756.08,-37.54 745.65,-39.38 754.96,-44.45 756.08,-37.54"/>
<text text-anchor="middle" x="941" y="-61.6" font-family="Helvetica,sans-Serif" font-size="8.00">pattern</text>
</g>
<!-- e11&#45;&gt;n1696363746 -->
<g id="edge23" class="edge">
<title>e11&#45;&gt;n1696363746</title>
<path fill="none" stroke="#666666" d="M1064.37,-86.86C1071.63,-77.58 1081.77,-66.35 1093,-59 1103.04,-52.43 1114.35,-46.9 1125.8,-42.27"/>
<polygon fill="#666666" stroke="#666666" points="1127.34,-45.43 1135.44,-38.6 1124.84,-38.89 1127.34,-45.43"/>
<text text-anchor="middle" x="1106" y="-61.6" font-family="Helvetica,sans-Serif" font-size="8.00">context</text>
</g>
</g>
</svg>
