<?xml version="1.0" encoding="UTF-8" standalone="no"?>
<!DOCTYPE svg PUBLIC "-//W3C//DTD SVG 1.1//EN"
 "http://www.w3.org/Graphics/SVG/1.1/DTD/svg11.dtd">
<!-- Generated by graphviz version 2.43.0 (0)
 -->
<!-- Title: g Pages: 1 -->
<svg width="1314pt" height="153pt"
 viewBox="0.00 0.00 1313.50 153.00" xmlns="http://www.w3.org/2000/svg" xmlns:xlink="http://www.w3.org/1999/xlink">
<g id="graph0" class="graph" transform="scale(1 1) rotate(0) translate(4 149)">
<title>g</title>
<polygon fill="white" stroke="transparent" points="-4,4 -4,-149 1309.5,-149 1309.5,4 -4,4"/>
<text text-anchor="middle" x="652.75" y="-129.8" font-family="Helvetica,sans-Serif" font-weight="bold" font-size="14.00"> — &#160;(rendered from EDN alone)</text>
<!-- n1714060715 -->
<g id="node1" class="node">
<title>n1714060715</title>
<path fill="#f0f0f0" stroke="black" d="M162,-38.5C162,-38.5 12,-38.5 12,-38.5 6,-38.5 0,-32.5 0,-26.5 0,-26.5 0,-14.5 0,-14.5 0,-8.5 6,-2.5 12,-2.5 12,-2.5 162,-2.5 162,-2.5 168,-2.5 174,-8.5 174,-14.5 174,-14.5 174,-26.5 174,-26.5 174,-32.5 168,-38.5 162,-38.5"/>
<text text-anchor="middle" x="87" y="-23.5" font-family="Helvetica,sans-Serif" font-size="10.00">flight&#45;records&#45;organs&#45;typed&#45;ground…</text>
<text text-anchor="middle" x="87" y="-12.5" font-family="Helvetica,sans-Serif" font-size="10.00">scope</text>
</g>
<!-- n986649427 -->
<g id="node2" class="node">
<title>n986649427</title>
<polygon fill="#f0f0f0" stroke="#c0392b" stroke-width="2" stroke-dasharray="5,2" points="1305.5,-41 1124.5,-41 1124.5,0 1305.5,0 1305.5,-41"/>
<text text-anchor="middle" x="1215" y="-29" font-family="Helvetica,sans-Serif" font-size="10.00">flights&#45;as&#45;anatomy&#45;corpus&#45;canonica…</text>
<text text-anchor="middle" x="1215" y="-18" font-family="Helvetica,sans-Serif" font-size="10.00">scope</text>
<text text-anchor="middle" x="1215" y="-7" font-family="Helvetica,sans-Serif" font-size="10.00">HUNGRY: payoff</text>
</g>
<!-- n894137826 -->
<g id="node3" class="node">
<title>n894137826</title>
<path fill="#e4ecf4" stroke="black" d="M359.5,-38.5C359.5,-38.5 204.5,-38.5 204.5,-38.5 198.5,-38.5 192.5,-32.5 192.5,-26.5 192.5,-26.5 192.5,-14.5 192.5,-14.5 192.5,-8.5 198.5,-2.5 204.5,-2.5 204.5,-2.5 359.5,-2.5 359.5,-2.5 365.5,-2.5 371.5,-8.5 371.5,-14.5 371.5,-14.5 371.5,-26.5 371.5,-26.5 371.5,-32.5 365.5,-38.5 359.5,-38.5"/>
<text text-anchor="middle" x="282" y="-23.5" font-family="Helvetica,sans-Serif" font-size="10.00">flight schema v0.4 (organs: judgme…</text>
<text text-anchor="middle" x="282" y="-12.5" font-family="Helvetica,sans-Serif" font-size="10.00">compound</text>
</g>
<!-- n1389952406 -->
<g id="node4" class="node">
<title>n1389952406</title>
<path fill="#d3f3df" stroke="black" d="M544.5,-38.5C544.5,-38.5 401.5,-38.5 401.5,-38.5 395.5,-38.5 389.5,-32.5 389.5,-26.5 389.5,-26.5 389.5,-14.5 389.5,-14.5 389.5,-8.5 395.5,-2.5 401.5,-2.5 401.5,-2.5 544.5,-2.5 544.5,-2.5 550.5,-2.5 556.5,-8.5 556.5,-14.5 556.5,-14.5 556.5,-26.5 556.5,-26.5 556.5,-32.5 550.5,-38.5 544.5,-38.5"/>
<text text-anchor="middle" x="473" y="-23.5" font-family="Helvetica,sans-Serif" font-size="10.00">logic model F1&#45;F9 (no&#45;self&#45;certifi…</text>
<text text-anchor="middle" x="473" y="-12.5" font-family="Helvetica,sans-Serif" font-size="10.00">concept</text>
</g>
<!-- n1592258851 -->
<g id="node5" class="node">
<title>n1592258851</title>
<path fill="#d3f3df" stroke="black" d="M727,-38.5C727,-38.5 587,-38.5 587,-38.5 581,-38.5 575,-32.5 575,-26.5 575,-26.5 575,-14.5 575,-14.5 575,-8.5 581,-2.5 587,-2.5 587,-2.5 727,-2.5 727,-2.5 733,-2.5 739,-8.5 739,-14.5 739,-14.5 739,-26.5 739,-26.5 739,-32.5 733,-38.5 727,-38.5"/>
<text text-anchor="middle" x="657" y="-23.5" font-family="Helvetica,sans-Serif" font-size="10.00">substrate&#45;2 round&#45;trip (14 entitie…</text>
<text text-anchor="middle" x="657" y="-12.5" font-family="Helvetica,sans-Serif" font-size="10.00">concept</text>
</g>
<!-- n1314067013 -->
<g id="node6" class="node">
<title>n1314067013</title>
<polygon fill="#d3f3df" stroke="#c0392b" stroke-width="2" stroke-dasharray="5,2" points="909,-41 757,-41 757,0 909,0 909,-41"/>
<text text-anchor="middle" x="833" y="-29" font-family="Helvetica,sans-Serif" font-size="10.00">flight&#45;pretty&#45;print: .flight.edn &#45;…</text>
<text text-anchor="middle" x="833" y="-18" font-family="Helvetica,sans-Serif" font-size="10.00">concept</text>
<text text-anchor="middle" x="833" y="-7" font-family="Helvetica,sans-Serif" font-size="10.00">HUNGRY: payoff</text>
</g>
<!-- n660623988 -->
<g id="node7" class="node">
<title>n660623988</title>
<polygon fill="#d3f3df" stroke="#c0392b" stroke-width="2" stroke-dasharray="5,2" points="1106.5,-41 927.5,-41 927.5,0 1106.5,0 1106.5,-41"/>
<text text-anchor="middle" x="1017" y="-29" font-family="Helvetica,sans-Serif" font-size="10.00">typed&#45;grounds migration (grounds o…</text>
<text text-anchor="middle" x="1017" y="-18" font-family="Helvetica,sans-Serif" font-size="10.00">concept</text>
<text text-anchor="middle" x="1017" y="-7" font-family="Helvetica,sans-Serif" font-size="10.00">HUNGRY: design</text>
</g>
<!-- e0 -->
<g id="node8" class="node">
<title>e0</title>
<ellipse fill="#ffffff" stroke="#999999" cx="149" cy="-104" rx="30.13" ry="18"/>
<text text-anchor="middle" x="149" y="-102.1" font-family="Helvetica,sans-Serif" font-size="8.00">composes</text>
</g>
<!-- e0&#45;&gt;n1714060715 -->
<g id="edge1" class="edge">
<title>e0&#45;&gt;n1714060715</title>
<path fill="none" stroke="#666666" d="M137.05,-87.29C128.33,-75.83 116.33,-60.06 106.27,-46.83"/>
<polygon fill="#666666" stroke="#666666" points="108.83,-44.41 99.99,-38.57 103.26,-48.65 108.83,-44.41"/>
<text text-anchor="middle" x="130.5" y="-61.6" font-family="Helvetica,sans-Serif" font-size="8.00">from</text>
</g>
<!-- e0&#45;&gt;n894137826 -->
<g id="edge2" class="edge">
<title>e0&#45;&gt;n894137826</title>
<path fill="none" stroke="#666666" d="M169.2,-90.62C189.39,-78.25 220.89,-58.95 245.48,-43.88"/>
<polygon fill="#666666" stroke="#666666" points="247.49,-46.75 254.19,-38.54 243.83,-40.78 247.49,-46.75"/>
<text text-anchor="middle" x="223.5" y="-61.6" font-family="Helvetica,sans-Serif" font-size="8.00">to</text>
</g>
<!-- e1 -->
<g id="node9" class="node">
<title>e1</title>
<ellipse fill="#ffffff" stroke="#999999" cx="342" cy="-104" rx="30.13" ry="18"/>
<text text-anchor="middle" x="342" y="-102.1" font-family="Helvetica,sans-Serif" font-size="8.00">composes</text>
</g>
<!-- e1&#45;&gt;n894137826 -->
<g id="edge3" class="edge">
<title>e1&#45;&gt;n894137826</title>
<path fill="none" stroke="#666666" d="M330.43,-87.29C322,-75.83 310.38,-60.06 300.65,-46.83"/>
<polygon fill="#666666" stroke="#666666" points="303.32,-44.55 294.57,-38.57 297.68,-48.7 303.32,-44.55"/>
<text text-anchor="middle" x="324.5" y="-61.6" font-family="Helvetica,sans-Serif" font-size="8.00">from</text>
</g>
<!-- e1&#45;&gt;n1389952406 -->
<g id="edge4" class="edge">
<title>e1&#45;&gt;n1389952406</title>
<path fill="none" stroke="#666666" d="M362.18,-90.44C382,-78.12 412.67,-59.04 436.72,-44.07"/>
<polygon fill="#666666" stroke="#666666" points="438.61,-47.02 445.25,-38.76 434.91,-41.07 438.61,-47.02"/>
<text text-anchor="middle" x="415.5" y="-61.6" font-family="Helvetica,sans-Serif" font-size="8.00">to</text>
</g>
<!-- e2 -->
<g id="node10" class="node">
<title>e2</title>
<ellipse fill="#ffffff" stroke="#999999" cx="530" cy="-104" rx="30.13" ry="18"/>
<text text-anchor="middle" x="530" y="-102.1" font-family="Helvetica,sans-Serif" font-size="8.00">composes</text>
</g>
<!-- e2&#45;&gt;n1389952406 -->
<g id="edge5" class="edge">
<title>e2&#45;&gt;n1389952406</title>
<path fill="none" stroke="#666666" d="M518.74,-86.9C510.83,-75.59 500.09,-60.23 491,-47.23"/>
<polygon fill="#666666" stroke="#666666" points="493.62,-44.88 485.03,-38.69 487.89,-48.89 493.62,-44.88"/>
<text text-anchor="middle" x="513.5" y="-61.6" font-family="Helvetica,sans-Serif" font-size="8.00">from</text>
</g>
<!-- e2&#45;&gt;n1592258851 -->
<g id="edge6" class="edge">
<title>e2&#45;&gt;n1592258851</title>
<path fill="none" stroke="#666666" d="M549.84,-90.27C569.02,-77.96 598.49,-59.05 621.68,-44.17"/>
<polygon fill="#666666" stroke="#666666" points="623.7,-47.03 630.22,-38.68 619.92,-41.14 623.7,-47.03"/>
<text text-anchor="middle" x="601.5" y="-61.6" font-family="Helvetica,sans-Serif" font-size="8.00">to</text>
</g>
<!-- e3 -->
<g id="node11" class="node">
<title>e3</title>
<ellipse fill="#ffffff" stroke="#999999" cx="726" cy="-104" rx="30.13" ry="18"/>
<text text-anchor="middle" x="726" y="-102.1" font-family="Helvetica,sans-Serif" font-size="8.00">composes</text>
</g>
<!-- e3&#45;&gt;n1592258851 -->
<g id="edge7" class="edge">
<title>e3&#45;&gt;n1592258851</title>
<path fill="none" stroke="#666666" d="M713.02,-87.67C703.26,-76.14 689.67,-60.08 678.32,-46.68"/>
<polygon fill="#666666" stroke="#666666" points="680.73,-44.11 671.59,-38.74 675.38,-48.63 680.73,-44.11"/>
<text text-anchor="middle" x="704.5" y="-61.6" font-family="Helvetica,sans-Serif" font-size="8.00">from</text>
</g>
<!-- e3&#45;&gt;n1314067013 -->
<g id="edge8" class="edge">
<title>e3&#45;&gt;n1314067013</title>
<path fill="none" stroke="#666666" d="M744.15,-89.17C759.15,-77.75 780.85,-61.23 799.05,-47.36"/>
<polygon fill="#666666" stroke="#666666" points="801.29,-50.05 807.13,-41.21 797.05,-44.48 801.29,-50.05"/>
<text text-anchor="middle" x="786.5" y="-61.6" font-family="Helvetica,sans-Serif" font-size="8.00">to</text>
</g>
<!-- e4 -->
<g id="node12" class="node">
<title>e4</title>
<ellipse fill="#ffffff" stroke="#999999" cx="919" cy="-104" rx="30.13" ry="18"/>
<text text-anchor="middle" x="919" y="-102.1" font-family="Helvetica,sans-Serif" font-size="8.00">composes</text>
</g>
<!-- e4&#45;&gt;n1314067013 -->
<g id="edge9" class="edge">
<title>e4&#45;&gt;n1314067013</title>
<path fill="none" stroke="#666666" d="M903.62,-88.43C891.88,-77.3 875.38,-61.66 861.28,-48.3"/>
<polygon fill="#666666" stroke="#666666" points="863.4,-45.49 853.74,-41.15 858.59,-50.57 863.4,-45.49"/>
<text text-anchor="middle" x="890.5" y="-61.6" font-family="Helvetica,sans-Serif" font-size="8.00">from</text>
</g>
<!-- e4&#45;&gt;n660623988 -->
<g id="edge10" class="edge">
<title>e4&#45;&gt;n660623988</title>
<path fill="none" stroke="#666666" d="M936.07,-88.8C949.74,-77.44 969.27,-61.19 985.73,-47.51"/>
<polygon fill="#666666" stroke="#666666" points="988.07,-50.11 993.52,-41.03 983.59,-44.73 988.07,-50.11"/>
<text text-anchor="middle" x="974.5" y="-61.6" font-family="Helvetica,sans-Serif" font-size="8.00">to</text>
</g>
<!-- e5 -->
<g id="node13" class="node">
<title>e5</title>
<ellipse fill="#ffffff" stroke="#999999" cx="1062" cy="-104" rx="30.13" ry="18"/>
<text text-anchor="middle" x="1062" y="-102.1" font-family="Helvetica,sans-Serif" font-size="8.00">composes</text>
</g>
<!-- e5&#45;&gt;n986649427 -->
<g id="edge12" class="edge">
<title>e5&#45;&gt;n986649427</title>
<path fill="none" stroke="#666666" d="M1083.92,-91.32C1106.14,-79.49 1141.18,-60.82 1169.44,-45.77"/>
<polygon fill="#666666" stroke="#666666" points="1171.17,-48.81 1178.35,-41.02 1167.88,-42.64 1171.17,-48.81"/>
<text text-anchor="middle" x="1147.5" y="-61.6" font-family="Helvetica,sans-Serif" font-size="8.00">to</text>
</g>
<!-- e5&#45;&gt;n660623988 -->
<g id="edge11" class="edge">
<title>e5&#45;&gt;n660623988</title>
<path fill="none" stroke="#666666" d="M1052.89,-86.51C1047.12,-76.05 1039.5,-62.26 1032.77,-50.06"/>
<polygon fill="#666666" stroke="#666666" points="1035.74,-48.19 1027.84,-41.13 1029.61,-51.57 1035.74,-48.19"/>
<text text-anchor="middle" x="1051.5" y="-61.6" font-family="Helvetica,sans-Serif" font-size="8.00">from</text>
</g>
</g>
</svg>
